<?xml version="1.0" standalone="no"?>
<!DOCTYPE svg PUBLIC "-//W3C//DTD SVG 20010904//EN"
 "http://www.w3.org/TR/2001/REC-SVG-20010904/DTD/svg10.dtd">
<svg version="1.0" xmlns="http://www.w3.org/2000/svg"
 width="512.000000pt" height="512.000000pt" viewBox="0 0 512.000000 512.000000"
 preserveAspectRatio="xMidYMid meet">

<g transform="translate(0.000000,512.000000) scale(0.100000,-0.100000)"
fill="#000000" stroke="none">
<path d="M1769 4863 c11 -16 212 -220 448 -454 400 -398 432 -428 488 -450 57
-22 74 -23 384 -27 311 -4 324 -3 317 15 -7 17 -131 245 -221 403 -23 41 -81
145 -128 230 -47 85 -101 173 -120 195 -47 55 -120 93 -203 105 -38 5 -275 10
-527 10 l-458 0 20 -27z"/>
<path d="M2688 3566 c-326 -38 -641 -148 -898 -315 -76 -49 -169 -118 -207
-154 l-33 -31 24 -40 c180 -316 207 -352 301 -397 50 -24 73 -29 136 -29 99 0
152 17 328 105 219 110 308 135 490 135 330 0 469 -171 471 -576 l0 -102 -137
-6 c-178 -9 -422 -33 -532 -52 -188 -32 -451 -107 -571 -161 -211 -95 -332
-176 -443 -293 -88 -93 -127 -157 -174 -286 -32 -88 -36 -112 -40 -224 -17
-428 192 -742 572 -861 142 -44 205 -52 400 -53 199 0 256 7 407 50 177 49
393 174 567 326 24 21 47 38 51 38 6 0 21 -38 78 -190 23 -59 106 -145 157
-161 26 -8 137 -13 323 -16 l283 -5 -4 1124 c-3 1105 -3 1124 -24 1216 -43
187 -113 350 -206 483 -161 229 -423 395 -725 459 -127 27 -426 35 -594 16z
m612 -2201 l0 -224 -48 -45 c-143 -134 -258 -195 -422 -222 -103 -17 -182 -18
-269 -3 -166 29 -235 113 -235 284 0 78 3 97 26 141 51 97 158 166 342 219
135 38 369 71 529 74 l77 1 0 -225z"/>
</g>
</svg>
